<svg fill="none" height="132" viewBox="0 0 950 132" width="950" xmlns="http://www.w3.org/2000/svg"><path clip-rule="evenodd" d="m65.5223.00018311c-36.0533 0-65.5223 29.46911689-65.5223 65.52231689 0 36.0535 29.469 65.5225 65.5223 65.5225 22.764 0 42.8997-11.752 54.6527-29.488l-17.805-13.8467c-7.485 12.4757-21.1316 20.7627-36.8477 20.7627-23.8562 0-42.9507-19.0943-42.9507-42.9505s19.0945-42.9621 42.9507-42.9621c15.7161 0 29.3627 8.2924 36.8477 20.7716l17.805-13.8468c-11.753-17.7354-31.8892-29.48501689-54.6527-29.48501689zm76.2067 4.08368689v124.79913h21.841v-124.79913zm50.237 0v124.79913h21.84v-85.1217c19.018 28.1153 57.583 85.1217 57.583 85.1217h21.366v-124.79913h-21.841v85.12223c-19.022-28.1152-57.58-85.12223-57.58-85.12223zm129.315 0v124.79913h79.753v-21.84h-57.912v-39.2084h51.679v-21.8409h-51.679v-20.069h59.374v-21.84083zm105.735 0v124.79913h21.84v-86.1085l33.686 46.2895 33.682-46.2895v86.1085h21.841v-124.79913h-20.689s-19.636 26.98063-34.834 47.86213c-15.199-20.8823-34.837-47.86213-34.837-47.86213zm173.77 0-47.799 124.79913h23.391l13.027-34.0177h42.962l13.028 34.0177h23.391l-47.8-124.79913zm82.136 0v124.79913h21.841v-61.64h11.046l44.253 61.638h26.894l-44.281-61.6608c3.669-.1148 9.582-.8303 16.161-4.6211 7.431-4.2818 14.663-14.0828 14.663-26.9371s-7.232-22.6409-14.663-26.9227c-7.431-4.28175-14.02-4.65543-17.475-4.65543zm119.448 0v124.79913h21.841v-46.3258l21.482-20.1772 47.259 66.503h26.798l-57.989-81.5925 46.005-43.20663h-31.9l-51.655 48.50763v-48.50763zm111.959 0v3.95588h5.048v12.06635h4.951v-12.06635h5.048v-3.95588zm17.649 0v16.02223h4.056v-12.21998l3.125 12.21998h3.663l3.137-12.21998v12.21998h4.041v-16.02223h-6.49l-2.502 9.74873-2.514-9.74873zm-227.215 21.84083h36.598c7.069 0 10.269 3.7905 10.297 9.7373.027 5.9468-3.228 9.7403-10.297 9.7403h-36.598zm-93.878 12.8485 13.119 34.2514h-26.235z" fill="#fff" fill-rule="evenodd"/></svg>