<svg fill="none" height="113" viewBox="0 0 496 113" width="496" xmlns="http://www.w3.org/2000/svg" xmlns:xlink="http://www.w3.org/1999/xlink"><clipPath id="a"><path d="m0 6.5h100v100h-100z"/></clipPath><clipPath id="b"><path d="m136 0h360v113h-360z"/></clipPath><mask id="c" height="113" maskUnits="userSpaceOnUse" width="360" x="136" y="0"><path d="m496 0h-360v112.222h360z" fill="#fff"/></mask><g clip-path="url(#a)" fill="#fff"><path d="m0 61.5 55-55v27c0 15.464-12.536 28-28 28z"/><path d="m45 79.5c0-15.464 12.536-28 28-28h27l-55 55z"/></g><g clip-path="url(#b)"><g mask="url(#c)"><path clip-rule="evenodd" d="m307.443 4.47103c-2.688 2.22209-4.496 5.32929-5.1 8.76417-1.048 7.18 3.89 12.7187 11.077 12.7187 7.334 0 13.473-4.938 14.521-11.8247 1.194-7.33374-3.744-13.01912-10.931-13.01912-3.487-.05272-6.879 1.13885-9.567 3.36095zm-62.122 60.19797c.174-3.3545.123-6.7169-.153-10.0646h-54.843l-9.289 19.1026h40.838c-3.108 11.0285-14.758 18.013-28.727 18.013-21.128 0-35.097-14.1296-35.097-34.1612 0-19.5705 14.29-33.8538 33.386-33.8538 14.444 0 22.986 7.4384 27.344 16.1481h23.748c-5.749-22.0501-24.223-36.96196-51.092-36.96196-31.989 0-55.436 23.29326-55.436 54.66766 0 31.6747 23.14 54.6612 57.147 54.6052 31.221 0 50.931-22.1831 52.174-47.495zm20.493-60.06668-16.77 105.90568h21.436l16.762-105.90568zm23.44 105.90568 11.489-72.9877h21.429l-11.49 72.9877zm128.564-105.90568h-21.429l-6.53 40.83838c-3.877-5.7413-10.861-9.6246-20.954-9.6246-17.084 0-35.244 11.4895-38.98 35.0971-4.505 28.5666 14.129 41.3068 28.573 41.3068 9.632 0 17.552-3.891 23.14-10.875l4.624 9.163h23.789l-5.35-19.4795zm-46.894 49.84838c8.227 0 17.077 7.4525 15.058 20.4995-2.172 13.976-12.732 18.6347-20.192 18.6347-9.778 0-16.916-8.3884-15.058-20.3459 1.711-11.3358 9.938-18.7883 20.192-18.7883zm123.919 26.5551h-54.822c2.333 9.3173 8.857 13.969 17.86 13.969 8.234 0 12.572-2.0185 15.533-6.5235h19.41c-4.659 16.9237-20.031 23.7477-34.475 23.7477-23.14 0-38.199-16.3093-38.199-38.2057 0-21.7357 15.527-38.1982 37.577-38.1982s37.276 16.4834 37.276 38.2192c0 2.9544 0 4.037-.16 6.9915zm-54.975-14.2903h35.579c-1.397-7.9204-8.857-13.508-17.706-13.508-9.331 0-15.82 5.4339-17.873 13.508z" fill="#fff" fill-rule="evenodd"/></g></g></svg>