<svg height="150" viewBox="0 0 920 150" width="920" xmlns="http://www.w3.org/2000/svg"><g fill="none" fill-rule="evenodd"><path d="m704.05 109.82v5.1h-37.935v-5.1c5.745 0 7.965-3.825 7.965-14.025v-37.125c0-10.68-3.495-16.74-12.27-16.74-16.245 0-23.58 33.855-23.58 45.945v7.92c0 10.2 2.235 14.025 7.965 14.025v5.1h-37.935v-5.1c5.745 0 7.98-3.825 7.98-14.025v-76.5c0-10.2-2.235-14.025-7.98-14.025v-5.1h10.5c12.42 0 19.5.96 19.5 14.025v42.8086247c3.345-15 14.175-23.3536247 30.285-23.3536247s27.57 9.72 27.57 30.435v31.71c-.03 10.2 2.19 14.025 7.935 14.025zm-142.83-1.74c-16.245 0-20.355-13.77-20.355-33.15 0-19.365 4.11-33.15 20.355-33.15 11.175 0 16.29 6.225 15.66 20.01l23.505 3.21c-.81-18.285-13.815-31.5-39-31.5-31.71 0-43.83 19.92-43.83 41.43 0 21.525 12.12 41.445 43.83 41.445 25.185 0 38.19-13.275 39-31.5l-23.505 3.24c.63 13.755-4.485 19.965-15.66 19.965zm-79.35-51.04v-8.72c0-12.435-7.005-13.23-19.5-13.23h-10.5v5.1c5.73 0 7.965 3.825 7.965 14.025v41.445c0 10.2-2.235 14.025-7.965 14.025v5.1h37.92v-5.1c-5.73 0-7.965-3.825-7.965-14.025v-15.66c.021551-7.3164036 2.100738-14.4792019 6-20.67 1.153194-1.8588114 3.18254-2.9925246 5.37-3h15.915l8.445-22.83h-2.55c-10.988856.0288147-22.27599 6.3135724-27.64117 15.1032556zm-45.975 37.96v-22.29c0-28.5-10.365-39.21-36.33-39.21-26.64 0-39.63 12.645-37.365 28.5l21-3c-3.315-10.905 1.92-17.355 14.175-17.355 12.75 0 15.78 7.185 16.41 23.595-22.305 2.55-56.1 7.965-56.1 31.08 0 13.38 8.925 19.92 25.665 19.92 14.175 0 25.83-5.895 30.6-13.395v1.125c.945 9.075 9.24 10.68 15.135 10.68s12.12-2.235 14.82-6.375v-6c-5.145 3.105-8.01 1.725-8.01-7.275zm-21.99-12.75v1.92c0 10.5-9.255 23.895-22.95 23.895-7.815 0-11.325-4.14-11.325-12.585 0-12.915 15.465-19.92 34.275-21.99zm-64.905 27.435v5.1h-37.965v-5.1c5.73 0 7.965-3.825 7.965-14.025v-37.14c0-10.68-3.51-16.74-12.27-16.74-16.26 0-23.58 34.185-23.58 46.14v7.74c0 10.2 2.22 14.025 7.965 14.025v5.1h-37.935v-5.1c5.745 0 7.965-3.825 7.965-14.025v-41.445c0-10.2-2.22-14.025-7.965-14.025v-5.1h10.5c12.435 0 19.5.795 19.5 13.23v8.7023364c3.345-15 14.175-23.5223364 30.27-23.5223364s27.57 9.72 27.57 30.435v31.725c-.03 10.2 2.205 14.025 7.98 14.025zm-148.965-76.185h-.21c-30.12 0-43.665 19.92-43.665 41.43s13.5 41.445 43.665 41.445h.21c30.12 0 43.665-19.92 43.665-41.445s-13.545-41.43-43.665-41.43zm.165 74.565h-.54c-15.885-.315-20.595-13.2-20.31-33.435s5.535-33 20.58-32.835c15-.165 20.295 12.465 20.595 32.835s-4.425 33.12-20.325 33.435zm-61.485-79.35v66.945c0 10.2 2.235 14.025 7.98 14.025v5.1h-37.935v-5.1c5.73 0 7.965-3.825 7.965-14.025v-65.34l-36.975 84.465h-24l-38.145-84.465v65.34c0 10.2 2.235 14.025 7.965 14.025v5.1h-25.185v-5.1c5.745 0 7.98-3.825 7.98-14.025v-66.945c0-10.2-2.235-14.025-7.98-14.025v-5.1h10.5c15.93 0 21.825.795 28.68 15.945l35.535 79.365 34.59-79.365c6.525-14.67 15.3-15.78 26.445-15.945h10.5v5.1c-5.685 0-7.92 3.81-7.92 14.025z" fill="#002864" transform="translate(215 13)"/><g fill="#ff7369"><path d="m82.03123 39.84375c-.0069331 10.9256279 3.59256 20.2489346 14.0625 23.4375l23.4375 9.375c1.132122.3430509 2.341896 1.1628597 2.34375 2.34375.004775 1.1864338-1.206303 1.9990945-2.34375 2.34375l-23.4375 9.375c-10.4391227 3.195693-14.0605534 12.539198-14.0624949 23.4375l-.000035 35.15625c33.6118609-9.386327 56.2500299-35.476337 56.2500299-70.3125 0-34.8361629-22.638169-60.9261733-56.2500299-70.3125z" transform="matrix(-1 0 0 1 220.312 0)"/><path d="m11.71875 39.84375c-.0069332 10.9256279 3.59256 20.2489346 14.0625 23.4375l23.4375 9.375c1.1321216.3430509 2.3418957 1.1628597 2.34375 2.34375.0047753 1.1864338-1.2063035 1.9990945-2.34375 2.34375l-23.4375 9.375c-10.4391228 3.195693-14.0605534 12.539198-14.062495 23.4375l-.0000349 35.15625c33.6118609-9.386327 56.2500299-35.476337 56.2500299-70.3125 0-34.8361629-22.638169-60.9261733-56.2500299-70.3125z"/></g></g></svg>