<svg fill="none" height="112" viewBox="0 0 495 112" width="495" xmlns="http://www.w3.org/2000/svg"><g fill="#000"><path d="m302.343 12.2352c.604-3.43488 2.412-6.54208 5.1-8.76417 2.688-2.2221 6.08-3.4136742 9.567-3.360954 7.187 0 12.125 5.685384 10.931 13.019124-1.048 6.8867-7.187 11.8247-14.521 11.8247-7.187 0-12.125-5.5387-11.077-12.7187z"/><path d="m245.168 53.6044c.276 3.3477.327 6.7101.153 10.0646-1.243 25.3119-20.953 47.495-52.174 47.495-34.007.056-57.147-22.9305-57.147-54.6052 0-31.3744 23.447-54.66766 55.436-54.66766 26.869 0 45.343 14.91186 51.092 36.96196h-23.748c-4.358-8.7097-12.9-16.1481-27.344-16.1481-19.096 0-33.386 14.2833-33.386 33.8538 0 20.0316 13.969 34.1612 35.097 34.1612 13.969 0 25.619-6.9845 28.727-18.013h-40.838l9.289-19.1026z"/><path d="m249.044 109.508 16.77-105.90568h21.428l-16.762 105.90568z"/><path d="m300.743 36.5203-11.489 72.9877h21.428l11.49-72.9877z"/><path clip-rule="evenodd" d="m396.389 3.60232h21.429l-13.117 86.42618 5.35 19.4795h-23.789l-4.624-9.163c-5.588 6.984-13.508 10.875-23.14 10.875-14.444 0-33.078-12.7402-28.573-41.3068 3.736-23.6076 21.896-35.0971 38.98-35.0971 10.093 0 17.077 3.8833 20.954 9.6246zm-10.407 70.34788c2.019-13.047-6.831-20.4995-15.058-20.4995-10.254 0-18.481 7.4525-20.192 18.7883-1.858 11.9575 5.28 20.3459 15.058 20.3459 7.46 0 18.02-4.6587 20.192-18.6347z" fill-rule="evenodd"/><path clip-rule="evenodd" d="m440.021 80.0058h54.822c.16-2.9545.16-4.0371.16-6.9915 0-21.7358-15.226-38.2192-37.276-38.2192s-37.577 16.4625-37.577 38.1982c0 21.8964 15.059 38.2057 38.199 38.2057 14.444 0 29.816-6.824 34.475-23.7477h-19.41c-2.961 4.505-7.299 6.5235-15.533 6.5235-9.003 0-15.527-4.6517-17.86-13.969zm35.426-14.2903h-35.579c2.053-8.0741 8.542-13.508 17.873-13.508 8.849 0 16.309 5.5876 17.706 13.508z" fill-rule="evenodd"/><path d="m0 60.5 55-55v27c0 15.464-12.536 28-28 28z"/><path d="m45 78.5c0-15.464 12.536-28 28-28h27l-55 55z"/></g></svg>