<svg xmlns="http://www.w3.org/2000/svg" width="100%" height="100%" viewBox="0 0 126 39" fill="none" preserveAspectRatio="xMidYMid meet">
<path d="M8.99944 17.8449C5.34727 17.8449 2.08571 15.6814 0.688356 12.3367C-0.229452 10.1385 -0.229452 7.71596 0.688356 5.51772C1.60616 3.31316 3.33698 1.59499 5.55687 0.682214C6.6557 0.230563 7.81487 0 8.99309 0C12.6453 0 15.9068 2.1635 17.3042 5.50824C18.222 7.70649 18.222 10.129 17.3042 12.3272C16.3864 14.5318 14.6556 16.25 12.4357 17.1627C11.3368 17.6144 10.1808 17.8449 8.99944 17.8449Z" fill="currentColor"></path>
<path d="M8.99944 38.6081C5.34727 38.6081 2.08571 36.4446 0.688356 33.0999C-0.229452 30.9016 -0.229452 28.4791 0.688356 26.2809C1.60616 24.0763 3.33698 22.3582 5.55687 21.4454C6.6557 20.9937 7.81487 20.7632 8.99309 20.7632C12.6453 20.7632 15.9068 22.9267 17.3042 26.2714C18.222 28.4697 18.222 30.8922 17.3042 33.0904C16.3864 35.295 14.6556 37.0131 12.4357 37.9259C11.3368 38.3776 10.1808 38.6081 8.99944 38.6081Z" fill="currentColor"></path>
<path d="M50.5451 30.27V17.128C50.5451 13.7927 49.1446 12.0303 46.496 12.0303C44.1999 12.0303 41.7609 13.8622 41.7609 17.2574V30.27H37.1496V17.128C37.1496 13.7927 35.7491 12.0303 33.1004 12.0303C30.8043 12.0303 28.3653 13.8622 28.3653 17.2574V30.27H23.754V8.17074H28.3653V11.067L28.8448 10.4858C30.3502 8.66345 32.3573 7.73804 34.8185 7.73804C37.2798 7.73804 39.2901 8.78347 40.5572 10.7606L40.7446 11.0544L40.9828 10.8017C42.9137 8.74241 45.1367 7.73804 47.7822 7.73804C52.2601 7.73804 55.1532 10.8301 55.1532 15.6182V30.27H50.542H50.5451Z" fill="currentColor"></path>
<path d="M114.976 30.7469C110.498 30.7469 107.605 27.6706 107.605 22.9077V8.17065H112.216V21.7865C112.216 24.8786 113.731 26.5841 116.478 26.5841C118.917 26.5841 121.385 24.787 121.385 21.357V8.17065H125.996V30.2731H121.385V27.3958L120.908 27.9549C119.327 29.8088 117.329 30.75 114.976 30.75V30.7469Z" fill="currentColor"></path>
<path d="M89.7983 30.7471C86.9464 30.7471 84.374 29.9702 82.5606 28.5647C80.6615 27.0897 79.658 25.0304 79.658 22.6048C79.658 19.2632 81.3634 16.8281 85.1839 14.7056L85.476 14.5446L85.2537 14.295C83.8945 12.7632 82.5067 10.8398 82.5067 8.20566V8.17407H87.5625C87.6642 9.75959 88.6455 10.9314 89.9095 12.28L90.0397 12.419L90.2143 12.3432C93.2187 11.0324 94.562 10.1354 94.743 8.17407H99.4655C99.2082 11.4335 96.8486 13.2275 93.1488 15.0373L92.809 15.2047L98.7287 21.0667L98.9129 20.7982C99.7068 19.6296 100.215 18.2336 100.386 16.7491H105.388C105.096 19.1274 104.032 21.6415 102.225 24.225L102.095 24.4082L108.043 30.3018H101.365L98.7986 27.7656L98.6112 27.9014C96.0229 29.7933 93.0567 30.7535 89.7951 30.7535V30.7471H89.7983ZM88.0707 17.4692C85.8825 18.7231 84.9489 20.0875 84.9489 22.0331C84.9489 24.2314 86.5876 26.4517 90.2461 26.4517C92.1611 26.4517 93.9078 25.9243 95.4385 24.882L95.7085 24.6988L88.2517 17.3713L88.0738 17.4724H88.0707V17.4692Z" fill="currentColor"></path>
<path d="M68.0886 30.5765C61.8672 30.5765 57.5195 25.8926 57.5195 19.1905C57.5195 12.4883 61.972 7.80444 67.8758 7.80444C73.7797 7.80444 77.5081 12.0399 77.5081 18.5935V20.0338H61.8386L61.8672 20.3275C62.2642 24.2944 64.646 26.7611 68.0854 26.7611C69.9211 26.7611 71.9917 25.5578 72.8015 24.0481H77.4477C75.7296 27.9708 72.0107 30.5796 68.0854 30.5796L68.0886 30.5765ZM67.8346 11.5787C64.9827 11.5787 62.9025 13.3348 62.1308 16.3921L62.0482 16.7269H72.9127V16.4521C72.8587 13.4896 70.8643 11.5756 67.8346 11.5756V11.5787Z" fill="currentColor"></path>
</svg>